<?xml version="1.0" standalone="no"?><!DOCTYPE svg PUBLIC "-//W3C//DTD SVG 1.1//EN" "http://www.w3.org/Graphics/SVG/1.1/DTD/svg11.dtd"><svg t="1688613395309" class="icon" viewBox="0 0 1024 1024" version="1.1" xmlns="http://www.w3.org/2000/svg" p-id="2288" xmlns:xlink="http://www.w3.org/1999/xlink" width="200" height="200"><path d="M458.9 421.7l129 7.3c22.6 0.1 41 18.5 41 41L465.8 633.2c-22.6-0.1-41-18.5-41-41L418 462.6c-0.2-22.5 18.3-41.1 40.9-40.9z" fill="#2c2c2c" p-id="2289"></path><path d="M835.7 841.3c-19.5 19.5-51.2 19.5-70.7 0L452.5 528.8c-19.5-19.5-19.5-51.2 0-70.7s51.2-19.5 70.7 0l312.5 312.5c19.5 19.5 19.5 51.2 0 70.7z" fill="#2c2c2c" p-id="2290"></path><path d="M902 119.2c17.7 17.7 27.5 41.4 27.5 66.7v164c0 19.3-15.7 35-35 35s-35-15.7-35-35V185.8c0-6.5-2.5-12.7-7-17.2-4.6-4.5-10.8-7.1-17.2-7.1H188.9c-6.5 0-12.6 2.5-17.1 7-4.7 4.7-7.3 11-7.3 17.4v652.3c0 13.4 10.9 24.3 24.4 24.3h164.6c19.3 0 35 15.7 35 35s-15.7 35-35 35H188.9c-52.1 0-94.4-42.3-94.4-94.3V185.9c0-25.1 9.8-48.7 27.5-66.6 17.8-17.9 41.5-27.8 66.9-27.8h646.4c24.8 0 49.1 10.1 66.7 27.7z" fill="#2c2c2c" p-id="2291"></path></svg>